HIERARCHY
ROOT RightUpLeg
{
	OFFSET -0.763382 0.000000 -0.109374
	CHANNELS 6 Xposition Yposition Zposition Xrotation Yrotation Zrotation
	JOINT RightUpArm
	{
		OFFSET -3.066313 0.000000 0.000000
		CHANNELS 3 Xrotation Yrotation Zrotation
		JOINT LeftHand
		{
			OFFSET -2.741983 0.004818 -0.000002
			CHANNELS 3 Xrotation Yrotation Zrotation
			JOINT L Finger1
			{
				OFFSET -0.685491 0.207190 0.077791
				CHANNELS 3 Xrotation Yrotation Zrotation
				JOINT L Finger11
				{
					OFFSET -0.348201 -0.006811 0.000000
					CHANNELS 3 Xrotation Yrotation Zrotation
					JOINT L Finger12
					{
						OFFSET -0.214172 -0.008316 -0.006234
						CHANNELS 3 Xrotation Yrotation Zrotation
						End Site
						{
							OFFSET -0.214424 -0.000000 0.000000
						}
					}
				}
			}
			JOINT L Finger4
			{
				OFFSET -0.639618 -0.307522 0.077791
				CHANNELS 3 Xrotation Yrotation Zrotation
				JOINT L Finger41
				{
					OFFSET -0.329153 0.000000 0.000000
					CHANNELS 3 Xrotation Yrotation Zrotation
					JOINT L Finger42
					{
						OFFSET -0.189706 0.000000 0.000000
						CHANNELS 3 Xrotation Yrotation Zrotation
						End Site
						{
							OFFSET -0.189706 -0.000000 0.000000
						}
					}
				}
			}
			JOINT L Finger2
			{
				OFFSET -0.694829 0.021576 0.077791
				CHANNELS 3 Xrotation Yrotation Zrotation
				JOINT L Finger21
				{
					OFFSET -0.387926 0.000000 0.000000
					CHANNELS 3 Xrotation Yrotation Zrotation
					JOINT L Finger22
					{
						OFFSET -0.239319 -0.000000 0.000000
						CHANNELS 3 Xrotation Yrotation Zrotation
						End Site
						{
							OFFSET -0.239320 -0.000000 0.000000
						}
					}
				}
			}
			JOINT L Finger3
			{
				OFFSET -0.686913 -0.143223 0.077791
				CHANNELS 3 Xrotation Yrotation Zrotation
				JOINT L Finger31
				{
					OFFSET -0.359850 -0.000000 0.000000
					CHANNELS 3 Xrotation Yrotation Zrotation
					JOINT L Finger32
					{
						OFFSET -0.207670 0.000000 0.000000
						CHANNELS 3 Xrotation Yrotation Zrotation
						End Site
						{
							OFFSET -0.207669 -0.000000 0.000000
						}
					}
				}
			}
			JOINT L Finger0
			{
				OFFSET -0.036888 0.168260 -0.105492
				CHANNELS 3 Xrotation Yrotation Zrotation
				JOINT L Finger01
				{
					OFFSET -0.370306 0.318978 -0.021741
					CHANNELS 3 Xrotation Yrotation Zrotation
					JOINT L Finger02
					{
						OFFSET -0.236204 0.186036 -0.010224
						CHANNELS 3 Xrotation Yrotation Zrotation
						End Site
						{
							OFFSET -0.300842 -0.000000 0.000000
						}
					}
				}
			}
		}
	}
}
MOTION
Frames: 12
Frame Time: 0.033333
-0.763382 0.000000 -0.109374 -11.099874 -46.549648 -48.190810 14.973796 8.554534 -112.886976 13.240717 21.231990 -12.939582 4.598530 -14.176158 -2.095955 -0.000000 -0.000000 -0.000001 -0.000000 -0.000000 -0.000001 -0.000000 -0.000001 -0.000000 -0.000000 0.000000 0.000001 -0.000000 0.000000 0.000000 -0.000000 -0.000001 0.000001 -0.000000 -0.000001 0.000001 -0.000001 -0.000001 0.000001 -0.000000 -0.000001 0.000000 0.000000 0.000000 0.000000 -0.000000 0.000000 0.000000 -0.000000 -0.000001 0.000001 -0.000000 -0.000001 0.000001 -0.000000 -0.000001 0.000001 
-0.763382 0.000000 -0.109374 -9.674539 -46.385491 -47.137830 16.174603 8.101109 -112.651867 12.811499 21.606702 -12.793374 4.589466 -14.305300 -2.213460 -0.000000 -0.000001 0.000000 -0.000000 -0.000001 0.000000 -0.000000 -0.000000 0.000001 -0.000000 -0.000001 0.000002 -0.000000 -0.000001 -0.000000 -0.000000 -0.000000 0.000000 -0.000000 -0.000000 0.000001 -0.000001 0.000001 0.000001 -0.000000 -0.000000 0.000000 -0.000000 -0.000001 -0.000000 -0.000000 -0.000000 -0.000000 -0.000000 -0.000000 0.000000 -0.000000 -0.000000 0.000000 -0.000000 -0.000000 0.000000 
-0.763382 0.000000 -0.109374 -9.125625 -46.600697 -46.313658 16.956682 7.929116 -113.531275 12.725707 21.902045 -12.860341 4.446940 -14.303074 -2.251592 -0.000000 -0.000001 0.000000 -0.000000 -0.000001 0.000000 0.000000 0.000001 0.000000 -0.000000 0.000000 0.000000 -0.000001 0.000000 -0.000000 0.000000 0.000001 -0.000000 0.000000 0.000001 0.000000 0.000001 0.000001 0.000000 0.000000 0.000001 -0.000000 0.000000 0.000000 -0.000001 -0.000000 0.000001 -0.000000 0.000000 0.000001 -0.000000 0.000000 0.000001 -0.000000 0.000000 0.000001 -0.000000 
-0.763382 0.000000 -0.109374 -8.678622 -46.624268 -45.639570 17.259425 7.910485 -114.510280 12.618447 22.147600 -13.020193 4.257226 -14.282056 -2.244980 -0.000000 -0.000000 -0.000001 -0.000000 -0.000000 -0.000001 0.000000 0.000000 -0.000000 -0.000001 -0.000001 0.000003 -0.000001 0.000000 -0.000001 0.000000 0.000000 -0.000000 0.000000 0.000000 0.000000 -0.000001 -0.000000 -0.000001 0.000000 0.000000 0.000000 -0.000001 -0.000000 0.000000 0.000000 0.000000 -0.000001 0.000000 0.000000 -0.000000 0.000000 0.000000 -0.000000 0.000000 0.000000 -0.000000 
-0.763382 0.000000 -0.109374 -8.330016 -46.438620 -45.189761 17.091864 7.962348 -115.143739 12.410961 22.302834 -13.208853 4.079652 -14.275257 -2.217117 0.000000 0.000001 0.000000 0.000001 0.000001 0.000000 -0.000000 0.000000 -0.000001 -0.000001 0.000000 0.000001 -0.000000 -0.000000 -0.000001 -0.000000 0.000000 -0.000000 0.000001 0.000001 -0.000001 -0.000000 0.000000 -0.000000 -0.000000 0.000000 -0.000001 -0.000000 0.000000 0.000000 -0.000000 0.000000 -0.000001 -0.000000 0.000000 -0.000000 -0.000000 0.000000 -0.000000 -0.000000 0.000000 -0.000001 
-0.763382 0.000000 -0.109374 -8.812204 -46.594833 -45.158400 16.527644 8.019616 -115.559260 12.312593 22.256448 -13.422742 3.946853 -14.235973 -2.179915 0.000001 0.000000 0.000001 0.000001 0.000000 0.000000 -0.000000 0.000001 0.000000 -0.000000 0.000001 0.000000 0.000001 0.000001 -0.000000 -0.000000 0.000001 0.000000 0.000001 0.000000 0.000000 -0.000001 0.000001 0.000000 -0.000000 0.000001 -0.000000 -0.000000 0.000000 -0.000000 -0.000000 0.000001 -0.000001 -0.000000 0.000001 0.000000 -0.000000 0.000001 0.000000 -0.000000 0.000001 -0.000000 
-0.763382 0.000000 -0.109374 -9.301904 -46.694797 -45.880355 16.479425 8.083380 -116.188047 12.419208 22.192424 -13.596163 3.878815 -14.183627 -2.105005 -0.000000 -0.000002 0.000001 0.000000 -0.000002 0.000000 0.000001 0.000002 -0.000001 0.000001 0.000002 -0.000001 0.000000 0.000002 -0.000002 0.000001 0.000002 -0.000001 -0.000000 0.000001 -0.000001 -0.000001 0.000002 -0.000001 0.000001 0.000002 -0.000001 0.000001 0.000001 -0.000001 0.000001 0.000002 -0.000002 0.000001 0.000002 -0.000001 0.000001 0.000002 -0.000001 0.000001 0.000002 -0.000001 
-0.763382 0.000000 -0.109374 -9.155439 -46.579459 -46.308778 16.562901 8.318220 -116.068178 12.191596 22.113233 -13.502459 3.815611 -14.069413 -1.968180 -0.000000 0.000001 0.000000 -0.000000 0.000001 -0.000000 0.000001 0.000000 0.000000 0.000001 -0.000000 -0.000000 0.000001 0.000000 0.000000 0.000001 0.000000 0.000000 0.000001 0.000000 -0.000000 -0.000000 0.000001 0.000001 0.000001 0.000000 0.000000 0.000001 0.000000 0.000001 0.000001 0.000000 -0.000000 0.000001 0.000000 0.000000 0.000001 0.000000 0.000000 0.000001 0.000000 0.000000 
-0.763382 0.000000 -0.109374 -8.447622 -46.273217 -46.353816 16.739737 8.714988 -115.626442 11.612908 22.054370 -13.242484 3.794773 -13.940953 -1.798913 -0.000000 0.000001 0.000000 -0.000000 0.000001 0.000000 -0.000001 0.000001 0.000001 -0.000001 0.000001 -0.000000 -0.000001 0.000001 -0.000000 -0.000001 0.000001 0.000001 0.000001 -0.000000 0.000000 -0.000000 0.000001 0.000001 -0.000001 0.000001 0.000001 -0.000000 0.000001 0.000001 -0.000000 0.000001 0.000000 -0.000001 0.000001 0.000001 -0.000001 0.000001 0.000001 -0.000001 0.000001 0.000001 
-0.763382 0.000000 -0.109374 -7.411934 -45.878480 -45.905794 16.949446 9.272889 -114.907660 10.730383 22.078219 -12.884017 3.802813 -13.783979 -1.673059 -0.000000 0.000001 -0.000000 -0.000000 0.000002 -0.000001 0.000000 0.000000 -0.000000 -0.000001 0.000001 0.000000 0.000001 0.000000 0.000000 0.000000 0.000000 -0.000000 0.000001 0.000000 -0.000001 0.000001 0.000000 -0.000000 0.000000 0.000000 0.000000 -0.000001 -0.000001 0.000000 0.000001 0.000000 -0.000001 0.000000 0.000000 -0.000000 0.000000 0.000000 -0.000000 0.000000 0.000000 -0.000001 
-0.763382 0.000000 -0.109374 -6.426431 -45.578378 -44.818096 17.103040 9.999166 -113.572269 9.653702 22.276136 -12.459040 3.775510 -13.522678 -1.712411 -0.000000 0.000002 0.000000 -0.000000 0.000001 -0.000000 -0.000000 0.000001 -0.000000 -0.000000 0.000001 -0.000001 0.000001 0.000001 -0.000001 -0.000000 0.000001 0.000000 -0.000000 0.000000 -0.000000 0.000002 -0.000000 0.000000 -0.000000 0.000001 0.000000 -0.000000 0.000001 0.000001 0.000000 0.000001 -0.000001 -0.000000 0.000001 -0.000000 -0.000000 0.000001 -0.000000 -0.000000 0.000001 -0.000001 
-0.763382 0.000000 -0.109374 -7.028952 -46.746020 -44.183275 17.791294 10.088106 -114.672101 9.852078 22.405054 -12.605527 3.879763 -13.217564 -1.730513 0.000000 0.000001 0.000001 0.000001 0.000001 -0.000000 0.000000 -0.000000 0.000001 -0.000002 0.000000 -0.000000 0.000002 0.000000 -0.000000 0.000000 -0.000000 0.000001 -0.000001 -0.000001 -0.000001 0.000000 0.000000 -0.000001 0.000000 -0.000000 0.000001 0.000000 0.000000 -0.000000 0.000001 0.000000 -0.000000 0.000000 -0.000000 0.000001 0.000000 -0.000000 0.000001 0.000000 -0.000000 0.000000 
